<svg xmlns="http://www.w3.org/2000/svg" viewBox="0 0 1600 900" width="1600" height="900"><defs></defs><rect x="0" y="0" width="1600" height="900" rx="0" fill="#FFFFFF" opacity="1" /><rect x="0" y="0" width="620" height="900" rx="0" fill="#0B1B33" opacity="1" /><text x="100" y="190" font-family="Pretendard, 'Apple SD Gothic Neo', 'Malgun Gothic', 'Noto Sans KR', 'Segoe UI', Roboto, Helvetica, Arial, sans-serif" font-size="22" font-weight="700" fill="#6FA0FF" text-anchor="start" letter-spacing="6" opacity="1">ANNUAL REPORT</text><text x="90" y="420" font-family="Pretendard, 'Apple SD Gothic Neo', 'Malgun Gothic', 'Noto Sans KR', 'Segoe UI', Roboto, Helvetica, Arial, sans-serif" font-size="170" font-weight="800" fill="#fff" text-anchor="start" letter-spacing="-6" opacity="1">2026</text><rect x="100" y="500" width="400" height="13" rx="6.5" fill="#fff" opacity="0.3" /><rect x="100" y="530" width="340" height="13" rx="6.5" fill="#fff" opacity="0.3" /><rect x="100" y="560" width="370" height="13" rx="6.5" fill="#fff" opacity="0.3" /><text x="100" y="820" font-family="Pretendard, 'Apple SD Gothic Neo', 'Malgun Gothic', 'Noto Sans KR', 'Segoe UI', Roboto, Helvetica, Arial, sans-serif" font-size="20" font-weight="700" fill="#fff" text-anchor="start" letter-spacing="3" opacity="0.6">IMPACT &amp; PERFORMANCE</text><circle cx="960" cy="430" r="160" fill="none" stroke="#1F4FE0" stroke-width="64" stroke-dasharray="462.4 1005.3" stroke-dashoffset="0.0" transform="rotate(-90 960 430)"/><circle cx="960" cy="430" r="160" fill="none" stroke="#6FA0FF" stroke-width="64" stroke-dasharray="281.5 1005.3" stroke-dashoffset="-462.4" transform="rotate(-90 960 430)"/><circle cx="960" cy="430" r="160" fill="none" stroke="#0E1624" stroke-width="64" stroke-dasharray="160.8 1005.3" stroke-dashoffset="-743.9" transform="rotate(-90 960 430)"/><circle cx="960" cy="430" r="160" fill="none" stroke="#D6E0F7" stroke-width="64" stroke-dasharray="100.5 1005.3" stroke-dashoffset="-904.8" transform="rotate(-90 960 430)"/><text x="960" y="448" font-family="Pretendard, 'Apple SD Gothic Neo', 'Malgun Gothic', 'Noto Sans KR', 'Segoe UI', Roboto, Helvetica, Arial, sans-serif" font-size="56" font-weight="800" fill="#0E1624" text-anchor="middle" letter-spacing="0" opacity="1">46%</text><rect x="1220" y="330" width="26" height="26" rx="6" fill="#1F4FE0" opacity="1" /><rect x="1266" y="337" width="160" height="12" rx="6" fill="#0E1624" opacity="0.6" /><rect x="1220" y="392" width="26" height="26" rx="6" fill="#6FA0FF" opacity="1" /><rect x="1266" y="399" width="160" height="12" rx="6" fill="#0E1624" opacity="0.6" /><rect x="1220" y="454" width="26" height="26" rx="6" fill="#0E1624" opacity="1" /><rect x="1266" y="461" width="160" height="12" rx="6" fill="#0E1624" opacity="0.6" /><rect x="1220" y="516" width="26" height="26" rx="6" fill="#D6E0F7" opacity="1" /><rect x="1266" y="523" width="160" height="12" rx="6" fill="#0E1624" opacity="0.6" /><text x="720" y="760" font-family="Pretendard, 'Apple SD Gothic Neo', 'Malgun Gothic', 'Noto Sans KR', 'Segoe UI', Roboto, Helvetica, Arial, sans-serif" font-size="52" font-weight="800" fill="#0E1624" text-anchor="start" letter-spacing="0" opacity="1">120+</text><rect x="720" y="786" width="140" height="11" rx="5" fill="#8A93A3" opacity="0.5" /><text x="980" y="760" font-family="Pretendard, 'Apple SD Gothic Neo', 'Malgun Gothic', 'Noto Sans KR', 'Segoe UI', Roboto, Helvetica, Arial, sans-serif" font-size="52" font-weight="800" fill="#0E1624" text-anchor="start" letter-spacing="0" opacity="1">98%</text><rect x="980" y="786" width="140" height="11" rx="5" fill="#8A93A3" opacity="0.5" /><text x="1240" y="760" font-family="Pretendard, 'Apple SD Gothic Neo', 'Malgun Gothic', 'Noto Sans KR', 'Segoe UI', Roboto, Helvetica, Arial, sans-serif" font-size="52" font-weight="800" fill="#0E1624" text-anchor="start" letter-spacing="0" opacity="1">4.9</text><rect x="1240" y="786" width="140" height="11" rx="5" fill="#8A93A3" opacity="0.5" /></svg>